<svg width="100" height="100" viewBox="0 0 100 100" fill="none" xmlns="http://www.w3.org/2000/svg">
<path d="M17.5 13.5417H77.5L97 53L77.5 91.5417L47.5 98.0417L14 83.0417L17.5 13.5417Z" fill="white"/>
<path d="M85.3555 14.6447C75.9115 5.20098 63.3555 0 50 0C36.6445 0 24.0885 5.20098 14.6445 14.6447C5.20098 24.0885 0 36.6445 0 50C0 63.3555 5.20098 75.9115 14.6445 85.3553C24.0885 94.799 36.6445 100 50 100C63.3555 100 75.9115 94.799 85.3555 85.3553C94.799 75.9115 100 63.3555 100 50C100 36.6445 94.799 24.0885 85.3555 14.6447ZM50 94.1406C36.9396 94.1406 25.1881 88.4371 17.0992 79.3924C22.1139 66.098 34.9508 56.6406 50 56.6406C40.2918 56.6406 32.4219 48.7707 32.4219 39.0625C32.4219 29.3543 40.2918 21.4844 50 21.4844C59.7082 21.4844 67.5781 29.3543 67.5781 39.0625C67.5781 48.7707 59.7082 56.6406 50 56.6406C65.0492 56.6406 77.8861 66.098 82.9008 79.3924C74.8119 88.4371 63.0604 94.1406 50 94.1406Z" fill="url(#paint0_linear)"/>
<defs>
<linearGradient id="paint0_linear" x1="50" y1="0" x2="50" y2="100" gradientUnits="userSpaceOnUse">
<stop stop-color="#418448"/>
<stop offset="1" stop-color="#3A8842"/>
</linearGradient>
</defs>
</svg>
